<svg width="34" height="34" viewBox="0 0 34 34" fill="none" xmlns="http://www.w3.org/2000/svg">
<path fill-rule="evenodd" clip-rule="evenodd" d="M1.41667 4.02049C1.41667 3.32991 1.691 2.66762 2.17931 2.17931C2.66763 1.69099 3.32992 1.41666 4.0205 1.41666H29.9767C30.3189 1.4161 30.6579 1.48305 30.9742 1.61367C31.2905 1.74429 31.578 1.93602 31.8201 2.17789C32.0622 2.41975 32.2543 2.70699 32.3852 3.02317C32.5162 3.33935 32.5835 3.67826 32.5833 4.02049V29.9767C32.5837 30.319 32.5166 30.658 32.3858 30.9743C32.255 31.2906 32.0632 31.5781 31.8212 31.8202C31.5792 32.0623 31.2919 32.2543 30.9756 32.3853C30.6594 32.5162 30.3204 32.5835 29.9781 32.5833H4.0205C3.67844 32.5833 3.33973 32.5159 3.02373 32.385C2.70772 32.254 2.42062 32.0621 2.17881 31.8202C1.937 31.5782 1.74524 31.291 1.61447 30.975C1.48369 30.6589 1.41648 30.3201 1.41667 29.9781V4.02049ZM13.753 13.2997H17.9732V15.419C18.5824 14.2007 20.1407 13.1042 22.4825 13.1042C26.9719 13.1042 28.0358 15.5309 28.0358 19.9835V28.2313H23.4926V20.9978C23.4926 18.462 22.8834 17.0312 21.3364 17.0312C19.1902 17.0312 18.2977 18.5739 18.2977 20.9978V28.2313H13.753V13.2997ZM5.96133 28.0372H10.506V13.1042H5.96133V28.0358V28.0372ZM11.1563 8.23366C11.1648 8.62278 11.0956 9.00969 10.9526 9.37169C10.8096 9.73369 10.5957 10.0635 10.3236 10.3417C10.0514 10.6199 9.72641 10.841 9.36764 10.9919C9.00888 11.1428 8.62359 11.2206 8.23438 11.2206C7.84516 11.2206 7.45987 11.1428 7.10111 10.9919C6.74234 10.841 6.41734 10.6199 6.14517 10.3417C5.873 10.0635 5.65915 9.73369 5.51616 9.37169C5.37317 9.00969 5.30393 8.62278 5.3125 8.23366C5.32932 7.46987 5.64455 6.74303 6.19067 6.2088C6.7368 5.67457 7.4704 5.37542 8.23438 5.37542C8.99835 5.37542 9.73195 5.67457 10.2781 6.2088C10.8242 6.74303 11.1394 7.46987 11.1563 8.23366Z" fill="white"/>
</svg>
